<svg xmlns="http://www.w3.org/2000/svg" xmlns:xlink="http://www.w3.org/1999/xlink" version="1.1" width="256" height="256" viewBox="0 0 256 256" xml:space="preserve">
<g style="stroke: none; stroke-width: 0; stroke-dasharray: none; stroke-linecap: butt; stroke-linejoin: miter; stroke-miterlimit: 10; fill: none; fill-rule: nonzero; opacity: 1;" transform="translate(1.4065934065934016 1.4065934065934016) scale(2.81 2.81)">
	<path d="M 27.262 58.674 h -7.984 V 39.099 c 0 -1.104 -0.896 -2 -2 -2 s -2 0.896 -2 2 v 21.575 c 0 1.104 0.896 2 2 2 h 9.984 c 1.104 0 2 -0.896 2 -2 S 28.367 58.674 27.262 58.674 z" style="stroke: none; stroke-width: 1; stroke-dasharray: none; stroke-linecap: butt; stroke-linejoin: miter; stroke-miterlimit: 10; fill: rgb(0,0,0); fill-rule: nonzero; opacity: 1;" transform=" matrix(1 0 0 1 0 0) " stroke-linecap="round"/>
	<path d="M 44.275 37.099 h -4.474 c -3.723 0 -6.752 3.029 -6.752 6.753 v 12.069 c 0 3.724 3.029 6.753 6.752 6.753 h 4.474 c 3.723 0 6.752 -3.029 6.752 -6.753 V 43.852 C 51.027 40.128 47.998 37.099 44.275 37.099 z M 47.027 55.921 c 0 1.518 -1.235 2.753 -2.752 2.753 h -4.474 c -1.518 0 -2.752 -1.235 -2.752 -2.753 V 43.852 c 0 -1.518 1.235 -2.753 2.752 -2.753 h 4.474 c 1.518 0 2.752 1.235 2.752 2.753 V 55.921 z" style="stroke: none; stroke-width: 1; stroke-dasharray: none; stroke-linecap: butt; stroke-linejoin: miter; stroke-miterlimit: 10; fill: rgb(0,0,0); fill-rule: nonzero; opacity: 1;" transform=" matrix(1 0 0 1 0 0) " stroke-linecap="round"/>
	<path d="M 72.722 47.887 h -6.989 c -1.104 0 -2 0.896 -2 2 s 0.896 2 2 2 h 4.989 v 4.135 c 0 1.463 -1.281 2.652 -2.855 2.652 h -4.268 c -1.574 0 -2.855 -1.189 -2.855 -2.652 V 43.751 c 0 -1.462 1.281 -2.652 2.855 -2.652 h 5.49 c 1.104 0 2 -0.896 2 -2 s -0.896 -2 -2 -2 h -5.49 c -3.78 0 -6.855 2.984 -6.855 6.652 v 12.271 c 0 3.668 3.075 6.652 6.855 6.652 h 4.268 c 3.78 0 6.855 -2.984 6.855 -6.652 v -6.135 C 74.722 48.782 73.826 47.887 72.722 47.887 z" style="stroke: none; stroke-width: 1; stroke-dasharray: none; stroke-linecap: butt; stroke-linejoin: miter; stroke-miterlimit: 10; fill: rgb(0,0,0); fill-rule: nonzero; opacity: 1;" transform=" matrix(1 0 0 1 0 0) " stroke-linecap="round"/>
	<path d="M 81.339 27.938 h -2.404 v -7.16 c 0 -1.338 -0.521 -2.597 -1.468 -3.544 L 61.702 1.467 C 60.755 0.521 59.496 0 58.157 0 H 16.078 c -2.764 0 -5.013 2.249 -5.013 5.013 v 22.925 H 8.661 c -2.62 0 -4.751 2.131 -4.751 4.751 v 34.395 c 0 2.62 2.131 4.751 4.751 4.751 h 2.404 v 13.152 c 0 2.764 2.249 5.013 5.013 5.013 h 57.844 c 2.764 0 5.013 -2.249 5.013 -5.013 V 71.835 h 2.404 c 2.62 0 4.751 -2.131 4.751 -4.751 V 32.689 C 86.09 30.069 83.959 27.938 81.339 27.938 z M 72.107 17.529 H 62.15 c -0.411 0 -0.745 -0.334 -0.745 -0.745 V 6.828 L 72.107 17.529 z M 15.065 5.013 C 15.065 4.454 15.52 4 16.078 4 h 41.327 v 12.784 c 0 2.617 2.129 4.745 4.745 4.745 h 12.784 v 6.408 h -59.87 V 5.013 z M 74.935 84.987 c 0 0.559 -0.454 1.013 -1.013 1.013 H 16.078 c -0.559 0 -1.013 -0.454 -1.013 -1.013 V 71.835 h 59.87 V 84.987 z M 82.09 67.084 c 0 0.414 -0.337 0.751 -0.751 0.751 h -2.404 h -67.87 H 8.661 c -0.415 0 -0.751 -0.337 -0.751 -0.751 V 32.689 c 0 -0.415 0.337 -0.751 0.751 -0.751 h 2.404 h 67.87 h 2.404 c 0.414 0 0.751 0.337 0.751 0.751 V 67.084 z" style="stroke: none; stroke-width: 1; stroke-dasharray: none; stroke-linecap: butt; stroke-linejoin: miter; stroke-miterlimit: 10; fill: rgb(0,0,0); fill-rule: nonzero; opacity: 1;" transform=" matrix(1 0 0 1 0 0) " stroke-linecap="round"/>
</g>
</svg>