<svg xmlns="http://www.w3.org/2000/svg" xmlns:xlink="http://www.w3.org/1999/xlink" version="1.1" width="256" height="256" viewBox="0 0 256 256" xml:space="preserve">

<defs>
</defs>
<g style="stroke: none; stroke-width: 0; stroke-dasharray: none; stroke-linecap: butt; stroke-linejoin: miter; stroke-miterlimit: 10; fill: none; fill-rule: nonzero; opacity: 1;" transform="translate(1.4065934065934016 1.4065934065934016) scale(2.81 2.81)" >
	<path d="M 42.725 75.254 c -0.486 0 -0.963 -0.177 -1.335 -0.511 c -0.534 -0.479 -0.771 -1.207 -0.62 -1.908 l 2.986 -13.938 c 0.073 -0.341 0.234 -0.657 0.467 -0.916 l 28.373 -31.637 c 1.104 -1.231 2.621 -1.958 4.272 -2.048 c 1.656 -0.089 3.238 0.469 4.47 1.573 l 4.306 3.863 c 0.31 0.276 0.594 0.587 0.843 0.924 c 0.243 0.327 0.454 0.681 0.628 1.051 c 0.2 0.427 0.351 0.902 0.457 1.451 l 0 0 c 0.211 1.084 0.141 2.188 -0.205 3.195 c -0.134 0.389 -0.305 0.761 -0.51 1.109 c -0.209 0.357 -0.456 0.696 -0.734 1.008 L 57.745 70.109 c -0.233 0.26 -0.529 0.454 -0.86 0.563 l -13.532 4.479 C 43.147 75.221 42.935 75.254 42.725 75.254 z M 47.555 60.256 l -2.143 10.002 l 9.71 -3.215 l 28.019 -31.24 c 0.1 -0.11 0.188 -0.233 0.264 -0.36 c 0.071 -0.123 0.132 -0.254 0.179 -0.391 c 0.117 -0.34 0.139 -0.731 0.062 -1.128 c 0 0 0 -0.001 -0.001 -0.001 c -0.042 -0.22 -0.092 -0.388 -0.151 -0.515 c -0.062 -0.132 -0.135 -0.254 -0.218 -0.367 c -0.089 -0.119 -0.189 -0.229 -0.3 -0.328 l -4.309 -3.865 c -0.436 -0.391 -0.998 -0.583 -1.582 -0.557 c -0.584 0.032 -1.12 0.289 -1.511 0.725 L 47.555 60.256 z M 56.256 68.774 h 0.01 H 56.256 z" style="stroke: none; stroke-width: 1; stroke-dasharray: none; stroke-linecap: butt; stroke-linejoin: miter; stroke-miterlimit: 10; fill: rgb(0,0,0); fill-rule: nonzero; opacity: 1;" transform=" matrix(1 0 0 1 0 0) " stroke-linecap="round" />
	<path d="M 66.242 90 H 9.849 c -4.157 0 -7.539 -3.382 -7.539 -7.539 V 7.539 C 2.31 3.382 5.692 0 9.849 0 h 56.394 c 4.157 0 7.539 3.382 7.539 7.539 v 10.873 c 0 1.104 -0.896 2 -2 2 s -2 -0.896 -2 -2 V 7.539 C 69.781 5.587 68.193 4 66.242 4 H 9.849 C 7.897 4 6.31 5.587 6.31 7.539 v 74.922 C 6.31 84.412 7.897 86 9.849 86 h 56.394 c 1.951 0 3.539 -1.588 3.539 -3.539 V 63.962 c 0 -1.104 0.896 -2 2 -2 s 2 0.896 2 2 v 18.499 C 73.781 86.618 70.399 90 66.242 90 z" style="stroke: none; stroke-width: 1; stroke-dasharray: none; stroke-linecap: butt; stroke-linejoin: miter; stroke-miterlimit: 10; fill: rgb(0,0,0); fill-rule: nonzero; opacity: 1;" transform=" matrix(1 0 0 1 0 0) " stroke-linecap="round" />
	<path d="M 58.882 18.746 H 17.209 c -1.104 0 -2 -0.896 -2 -2 s 0.896 -2 2 -2 h 41.673 c 1.104 0 2 0.896 2 2 S 59.986 18.746 58.882 18.746 z" style="stroke: none; stroke-width: 1; stroke-dasharray: none; stroke-linecap: butt; stroke-linejoin: miter; stroke-miterlimit: 10; fill: rgb(0,0,0); fill-rule: nonzero; opacity: 1;" transform=" matrix(1 0 0 1 0 0) " stroke-linecap="round" />
	<path d="M 52.45 37.582 H 17.209 c -1.104 0 -2 -0.896 -2 -2 s 0.896 -2 2 -2 H 52.45 c 1.104 0 2 0.896 2 2 S 53.555 37.582 52.45 37.582 z" style="stroke: none; stroke-width: 1; stroke-dasharray: none; stroke-linecap: butt; stroke-linejoin: miter; stroke-miterlimit: 10; fill: rgb(0,0,0); fill-rule: nonzero; opacity: 1;" transform=" matrix(1 0 0 1 0 0) " stroke-linecap="round" />
	<path d="M 36.83 56.418 H 17.209 c -1.104 0 -2 -0.896 -2 -2 s 0.896 -2 2 -2 H 36.83 c 1.104 0 2 0.896 2 2 S 37.935 56.418 36.83 56.418 z" style="stroke: none; stroke-width: 1; stroke-dasharray: none; stroke-linecap: butt; stroke-linejoin: miter; stroke-miterlimit: 10; fill: rgb(0,0,0); fill-rule: nonzero; opacity: 1;" transform=" matrix(1 0 0 1 0 0) " stroke-linecap="round" />
	<path d="M 32.398 75.254 H 17.209 c -1.104 0 -2 -0.896 -2 -2 s 0.896 -2 2 -2 h 15.189 c 1.104 0 2 0.896 2 2 S 33.502 75.254 32.398 75.254 z" style="stroke: none; stroke-width: 1; stroke-dasharray: none; stroke-linecap: butt; stroke-linejoin: miter; stroke-miterlimit: 10; fill: rgb(0,0,0); fill-rule: nonzero; opacity: 1;" transform=" matrix(1 0 0 1 0 0) " stroke-linecap="round" />
</g>
</svg>